<?xml version="1.0" standalone="no"?>
<!DOCTYPE svg PUBLIC "-//W3C//DTD SVG 20010904//EN"
 "http://www.w3.org/TR/2001/REC-SVG-20010904/DTD/svg10.dtd">
<svg version="1.0" xmlns="http://www.w3.org/2000/svg"
 width="640.000000pt" height="640.000000pt" viewBox="0 0 640.000000 640.000000"
 preserveAspectRatio="xMidYMid meet">
<metadata>
Created by potrace 1.11, written by Peter Selinger 2001-2013
</metadata>
<g transform="translate(0.000000,640.000000) scale(0.100000,-0.100000)"
fill="#000000" stroke="none">
<path d="M800 5225 l0 -185 -401 0 -402 0 8 -1767 7 -1768 22 -61 c13 -34 35
-83 51 -110 41 -70 150 -175 225 -216 134 -74 -129 -68 2890 -68 2451 0 2722
2 2771 16 180 52 345 217 402 399 14 44 16 277 23 1998 l6 1947 -2801 0 -2801
0 0 -185z m5198 -1918 l-3 -1734 -27 -39 c-15 -21 -44 -50 -65 -64 l-37 -25
-2349 -3 -2349 -2 7 27 c15 60 23 762 24 2136 l1 1437 2400 0 2400 0 -2 -1733z
m-5198 -186 l0 -1519 -28 -53 c-22 -43 -38 -59 -81 -81 -68 -36 -114 -36 -182
0 -43 22 -59 38 -81 81 l-28 53 0 1519 0 1519 200 0 200 0 0 -1519z"/>
<path d="M4000 4456 c0 -101 3 -191 6 -200 6 -14 85 -16 800 -16 l794 0 0 200
0 200 -800 0 -800 0 0 -184z"/>
<path d="M2059 4353 c-51 -53 -359 -476 -365 -499 -4 -15 1 -33 16 -51 43 -57
851 -912 884 -938 32 -25 36 -25 63 -11 37 20 164 149 577 591 251 268 346
376 346 393 0 13 -14 44 -32 70 -60 89 -325 437 -343 452 -15 13 -97 15 -569
18 l-551 3 -26 -28z"/>
<path d="M4000 3640 l0 -200 648 0 c357 0 717 3 800 7 l152 6 0 194 0 193
-800 0 -800 0 0 -200z"/>
<path d="M4000 2853 c0 -104 4 -194 8 -201 7 -10 173 -12 798 -10 l789 3 3
198 2 197 -800 0 -800 0 0 -187z"/>
<path d="M1600 2071 c0 -93 3 -183 6 -200 l7 -31 993 0 994 0 0 200 0 200
-1000 0 -1000 0 0 -169z"/>
<path d="M4000 2040 l0 -200 800 0 800 0 -2 198 -3 197 -797 3 -798 2 0 -200z"/>
</g>
</svg>
